<svg viewBox="0 0 169 128" xmlns="http://www.w3.org/2000/svg" fill-rule="evenodd" clip-rule="evenodd" stroke-linejoin="round" stroke-miterlimit="1.414"><g fill-rule="nonzero"><path d="M58.474 87.313c0 1.28-.838 1.782-1.509 1.782-.884 0-1.311-.624-1.311-1.553v-5.335h-1.248v5.868c0 1.31.73 1.98 2.072 1.98.807 0 1.54-.38 1.951-1.08h.045v.927H59.8a19.075 19.075 0 0 1-.076-1.599v-6.096h-1.249v5.106zm8.931 2.589V84.57c0-1.525-.412-2.514-2.057-2.514-.992 0-1.572.273-2.059 1.143h-.06v-.992h-1.326c.046.534.075 1.065.075 1.601v6.094h1.251v-4.556c0-1.052.198-2.27 1.57-2.27 1.066 0 1.356.67 1.356 1.494v5.332h1.25zm6.14-4.159c0 1.552 0 3.292-1.401 3.292-1.57 0-1.57-1.678-1.57-2.835 0-2.057.185-3.124 1.525-3.124 1.385 0 1.446 1.646 1.446 2.667zm0-2.76H73.5c-.427-.607-.96-.927-1.69-.927-2.485 0-2.547 2.208-2.547 4.13 0 3.381 1.25 3.87 2.485 3.87.807 0 1.34-.351 1.766-1.068h.031v.914h1.25v-11h-1.25v4.082zm7.908 6.919v-5.029h3.84v-1.219h-3.84v-3.536h4.053v-1.216H80.05v11h1.403zm7.891-.867c-1.297 0-1.616-.899-1.616-3.4 0-2.103.654-2.559 1.616-2.559.96 0 1.615.456 1.615 2.56 0 2.5-.321 3.4-1.615 3.4zm0 1.02c1.63 0 2.924-.488 2.924-3.886 0-2.256-.259-4.113-2.924-4.113-2.668 0-2.927 1.857-2.927 4.113 0 3.398 1.294 3.887 2.927 3.887zm6.126-7.848h-1.25v7.695h1.25v-4.539c0-1.038.35-2.09 1.735-2.09.229 0 .444.048.672.078v-1.295c-1.22 0-1.858.136-2.375 1.31h-.033v-1.16zm8.647 5.501c0-2.345-3.844-2.316-3.844-3.673 0-.669.521-1.035 1.19-1.035.793 0 1.221.427 1.205 1.233h1.388c.106-1.523-1.066-2.177-2.437-2.177-2.166 0-2.655 1.295-2.655 2.102 0 2.3 3.843 2.332 3.843 3.702 0 .794-.58 1.175-1.33 1.175-1.262 0-1.277-1.038-1.277-1.478h-1.416c-.048 1.767.99 2.499 2.651 2.499 1.523 0 2.682-.656 2.682-2.348zm6.898-3.033c.078-1.723-.825-2.62-2.362-2.62-2.665 0-2.927 1.858-2.927 4.114 0 3.398 1.297 3.887 2.927 3.887.856 0 2.47-.55 2.423-2.713h-1.31c.045 1.386-.823 1.692-1.113 1.692-1.295 0-1.614-.899-1.614-3.4 0-2.103.655-2.559 1.614-2.559.472 0 1.097.336 1.068 1.599h1.294zm7.497 5.227v-5.454c0-1.738-.731-2.392-2.041-2.392-1.006 0-1.584.243-2.086 1.143h-.061v-4.297h-1.25v11h1.25v-4.526c0-1.294.318-2.3 1.567-2.3 1.068 0 1.372.67 1.372 1.615v5.211h1.249zm6.31-2.589c0 1.28-.837 1.782-1.509 1.782-.884 0-1.31-.624-1.31-1.553v-5.335h-1.25v5.868c0 1.31.731 1.98 2.074 1.98.807 0 1.538-.38 1.95-1.08h.045v.927h1.326a17.987 17.987 0 0 1-.077-1.599v-6.096h-1.25v5.106zm8.929 2.589V84.57c0-1.525-.412-2.514-2.057-2.514-.988 0-1.567.273-2.057 1.143h-.06v-.992h-1.324c.042.534.075 1.065.075 1.601v6.094h1.25v-4.556c0-1.052.198-2.27 1.57-2.27 1.064 0 1.354.67 1.354 1.494v5.332h1.25zm6.173-3.886c0 1.068.045 2.85-1.461 2.85-.93 0-1.497-.578-1.497-3.047 0-1.02.048-2.726 1.464-2.726 1.569 0 1.494 1.78 1.494 2.923zm-.028-2.864h-.033c-.351-.745-.988-1.096-1.796-1.096-.625 0-2.408.227-2.408 3.763 0 2.286.41 4.083 2.498 4.083.67 0 1.371-.35 1.69-.96h.049v1.6c0 .793-.474 1.327-1.343 1.327-.686 0-1.158-.395-1.172-1.114h-1.402c-.108 1.418 1.051 2.057 2.329 2.057 1.691 0 2.835-.41 2.835-2.132v-8.473h-1.247v.945zM53.858 65.88v.946h1.186v6.75h1.25v-6.75h1.556v-.946h-1.555v-1.31c0-.625.228-1.19 1.555-1.098v-.897a3.076 3.076 0 0 0-.596-.047c-1.113 0-2.21.304-2.21 1.86v1.492h-1.186zm7.279-2.879h-1.433v1.584h1.433V63zm2.681 0h-1.432v1.584h1.432V63zm-.654 7.985c0 1.28-.84 1.783-1.51 1.783-.882 0-1.309-.626-1.309-1.554V65.88h-1.25v5.868c0 1.31.732 1.981 2.072 1.981.808 0 1.539-.38 1.95-1.082h.047v.928h1.325a19.075 19.075 0 0 1-.076-1.598V65.88h-1.249v5.106zm4.799-5.106h-1.25v7.695h1.25v-4.538c0-1.039.35-2.092 1.739-2.092.228 0 .439.05.669.08v-1.296c-1.22 0-1.86.136-2.377 1.31h-.031V65.88zm7.611 2.546h1.492c1.433 0 2.513.303 2.513 2.057 0 .807-.532 1.875-2.026 1.875h-1.98v-3.932zm0-4.634h1.98c1.174 0 1.69.748 1.69 1.66 0 1.069-.531 1.74-1.628 1.753h-2.042v-3.413zm2.133 9.783c1.248 0 3.305-.273 3.305-3.092 0-1.508-.686-2.455-2.255-2.637v-.075c1.418-.32 1.89-1.235 1.89-2.608 0-.21-.061-.867-.443-1.463-.41-.61-.928-1.125-2.452-1.125h-3.581v11h3.536zm6.559-7.695h-1.249v7.695h1.25V65.88zm-1.325-1.966h1.403v-1.339H82.94v1.34zm3.609-1.339h1.25v11h-1.25zm7.482 6.841c0 1.553 0 3.293-1.402 3.293-1.572 0-1.572-1.68-1.572-2.836 0-2.057.185-3.124 1.525-3.124 1.388 0 1.45 1.647 1.45 2.667zm0-2.759h-.049c-.424-.608-.957-.928-1.69-.928-2.482 0-2.544 2.208-2.544 4.13 0 3.382 1.25 3.87 2.483 3.87.809 0 1.342-.35 1.77-1.068h.03v.914h1.248v-11h-1.248v4.082zm7.666 4.329c0 1.28-.84 1.783-1.509 1.783-.884 0-1.31-.626-1.31-1.554V65.88h-1.252v5.868c0 1.31.73 1.981 2.074 1.981.806 0 1.54-.38 1.95-1.082h.047v.928h1.324a19.077 19.077 0 0 1-.078-1.598V65.88h-1.246v5.106zm8.929 2.589v-5.332c0-1.525-.412-2.514-2.057-2.514-.99 0-1.57.274-2.057 1.143h-.064v-.992h-1.323c.045.535.077 1.065.077 1.601v6.094h1.246V69.02c0-1.052.2-2.27 1.571-2.27 1.068 0 1.358.671 1.358 1.494v5.332h1.25zm6.173-3.885c0 1.068.045 2.85-1.464 2.85-.93 0-1.494-.578-1.494-3.048 0-1.02.045-2.726 1.464-2.726 1.569 0 1.494 1.78 1.494 2.924zm-.033-2.864h-.028c-.351-.746-.992-1.097-1.799-1.097-.624 0-2.408.227-2.408 3.763 0 2.286.412 4.083 2.498 4.083.67 0 1.371-.35 1.693-.959h.044v1.599c0 .793-.472 1.328-1.338 1.328-.689 0-1.16-.398-1.175-1.115h-1.402c-.108 1.417 1.051 2.058 2.332 2.058 1.69 0 2.832-.411 2.832-2.132V65.88h-1.249v.946zM55.854 52.099h1.495c1.431 0 2.513.303 2.513 2.057 0 .807-.533 1.875-2.026 1.875h-1.982v-3.932zm0-4.634h1.982c1.173 0 1.693.748 1.693 1.661 0 1.068-.535 1.739-1.634 1.753h-2.041v-3.414zm2.133 9.784c1.252 0 3.308-.274 3.308-3.093 0-1.507-.685-2.454-2.256-2.637v-.074c1.418-.32 1.891-1.236 1.891-2.609 0-.21-.061-.866-.442-1.462-.411-.61-.93-1.125-2.453-1.125h-3.583v11h3.535zm9.2-2.589c0 1.28-.84 1.782-1.511 1.782-.882 0-1.31-.626-1.31-1.554v-5.335h-1.248v5.868c0 1.31.73 1.981 2.07 1.981.809 0 1.54-.38 1.95-1.081h.05v.928h1.322a19.668 19.668 0 0 1-.075-1.599v-6.097h-1.248v5.107zm8.93 2.589v-5.332c0-1.526-.413-2.515-2.059-2.515-.99 0-1.569.274-2.056 1.143h-.062v-.992h-1.326c.047.535.078 1.066.078 1.602v6.094h1.248v-4.557c0-1.052.198-2.27 1.571-2.27 1.065 0 1.355.672 1.355 1.495v5.332h1.25zm6.14-4.159c0 1.552 0 3.292-1.403 3.292-1.567 0-1.567-1.679-1.567-2.835 0-2.058.18-3.124 1.524-3.124 1.385 0 1.446 1.646 1.446 2.666zm0-2.76h-.045c-.426-.608-.96-.928-1.691-.928-2.485 0-2.546 2.209-2.546 4.13 0 3.382 1.25 3.87 2.485 3.87.806 0 1.34-.35 1.766-1.068h.03v.915h1.251v-11h-1.25v4.081zm4.48 2.53c.015-2.131.67-2.513 1.464-2.513.913 0 1.539.272 1.539 2.514h-3.003zm4.328.945v-.654c0-2.545-.55-3.749-2.741-3.749-2.669 0-2.927 1.857-2.927 4.113 0 3.399 1.294 3.887 2.927 3.887 1.615 0 2.665-.778 2.68-2.483h-1.37c-.046.775-.49 1.463-1.342 1.463-.975 0-1.555-.429-1.555-2.577h4.328zm6.889 1.249c0-2.344-3.84-2.316-3.84-3.672 0-.67.518-1.035 1.188-1.035.792 0 1.22.427 1.204 1.232h1.386c.108-1.522-1.068-2.177-2.44-2.177-2.161 0-2.65 1.296-2.65 2.102 0 2.301 3.841 2.332 3.841 3.702 0 .795-.578 1.176-1.325 1.176-1.265 0-1.281-1.038-1.281-1.479H92.62c-.046 1.767.99 2.5 2.653 2.5 1.523 0 2.68-.658 2.68-2.349zm6.976 2.195v-5.18c0-.29.058-1.053.428-1.356.332-.274.47-.29.943-.29 1.006 0 1.22.715 1.22 1.494v5.332h1.249v-5.85c0-1.814-1.298-1.997-2.102-1.997-.702 0-1.404.166-1.829.99-.292-.7-1.1-.99-1.798-.99-.9 0-1.555.29-1.92 1.112h-.031v-.96h-1.327c.046.534.078 1.065.078 1.6v6.095h1.249v-5.18c0-.29.06-.748.29-1.13.183-.289.702-.516 1.081-.516 1.007 0 1.216.715 1.216 1.494v5.332h1.252zm7.297-7.696h-1.249v7.696h1.25v-7.696zm-1.326-1.966h1.402V46.25h-1.402v1.338zm9.019 9.662v-5.332c0-1.526-.41-2.515-2.057-2.515-.99 0-1.568.274-2.058 1.143h-.06v-.992h-1.326c.045.535.075 1.066.075 1.602v6.094h1.252v-4.557c0-1.052.198-2.27 1.57-2.27 1.065 0 1.355.672 1.355 1.495v5.332h1.249zm3.46-7.696h-1.25v7.696h1.25v-7.696zm-1.327-1.966h1.402V46.25h-1.402v1.338zm8.427 7.467c0-2.344-3.843-2.316-3.843-3.672 0-.67.518-1.035 1.188-1.035.794 0 1.223.427 1.204 1.232h1.39c.106-1.522-1.068-2.177-2.44-2.177-2.163 0-2.652 1.296-2.652 2.102 0 2.301 3.843 2.332 3.843 3.702 0 .795-.582 1.176-1.326 1.176-1.268 0-1.28-1.038-1.28-1.479h-1.42c-.043 1.767.99 2.5 2.655 2.5 1.52 0 2.681-.658 2.681-2.349zm.835-5.501v.946h1.262v5.47c0 .884.533 1.372 1.721 1.372.412 0 .825-.092 1.236-.124v-.957c-.274.03-.472.06-.564.06-1.141 0-1.141-.626-1.141-1.114V50.5h1.673v-.946h-1.673v-2.04l-1.252.561v1.48h-1.262zm6.576 3.307c.017-2.131.67-2.513 1.464-2.513.915 0 1.54.272 1.54 2.514h-3.004zm4.328.945v-.654c0-2.545-.547-3.749-2.741-3.749-2.668 0-2.927 1.857-2.927 4.113 0 3.399 1.296 3.887 2.927 3.887 1.612 0 2.665-.778 2.682-2.483h-1.372c-.048.775-.487 1.463-1.34 1.463-.977 0-1.557-.429-1.557-2.577h4.328zm3.094-4.252h-1.249v7.696h1.25v-4.54c0-1.037.35-2.09 1.737-2.09.228 0 .44.049.67.079v-1.296c-1.22 0-1.858.136-2.376 1.31h-.032v-1.159zm4.991 0h-1.252v7.696h1.252v-7.696zm-1.327-1.966h1.404V46.25h-1.404v1.338zm7.6 7.073c0 1.28-.834 1.782-1.506 1.782-.885 0-1.31-.626-1.31-1.554v-5.335h-1.249v5.868c0 1.31.73 1.981 2.072 1.981.808 0 1.539-.38 1.951-1.081h.042v.928h1.33a17.987 17.987 0 0 1-.078-1.599v-6.097h-1.252v5.107zm8.581 2.589v-5.18c0-.29.062-1.053.428-1.356.334-.274.47-.29.944-.29 1.007 0 1.219.715 1.219 1.494v5.332h1.252v-5.85c0-1.814-1.297-1.997-2.105-1.997-.7 0-1.4.166-1.829.99-.288-.7-1.096-.99-1.798-.99-.898 0-1.554.29-1.919 1.112h-.031v-.96h-1.327c.048.534.078 1.065.078 1.6v6.095h1.249v-5.18c0-.29.061-.748.288-1.13.184-.289.702-.516 1.085-.516 1.002 0 1.217.715 1.217 1.494v5.332h1.25z"/><path fill="#f1ce04" d="M39.991 100.788h4.82v27.213h-4.82z"/><path fill="#ec1c24" d="M39.991 73.482h4.82v27.306h-4.82z"/><path d="M39.991 46.366h4.82v27.21h-4.82zm-15.037 4.601c0-1.55-1.128-2.777-1.525-3.124l-.286.065c.423.516 1.166 1.379 1.166 2.522 0 2.247-2.375 4.202-5.087 4.238.02.231.02.435.02.61 0 .322-.021.636-.06.942 3.078-.056 5.772-2.558 5.772-5.253zm-4.243 18.617c-1.315 0-1.6-.14-1.946-.14-.222 0-.434.023-.434.337 0 .22.246.539.468.706.309-.308.733-.373 1.419-.373.32 0 .756.061.948.087-.026.19-.065.434-.065.778 0 .181.007.392.007.615 0 .776-.113 1.187-.384 1.498a.788.788 0 0 0 .308.068c.502 0 .63-.257.63-1.563 0-.394.034-.759.034-.854.702.537 1.419 1.494 1.419 2.186.228-.118.499-.465.499-.725 0-.472-.788-1.174-1.623-2.02.115-.028.426-.117.681-.117.656 0 1.187.108 1.496.473.122-.133.223-.533.223-.76 0-.392-.226-.379-.39-.379-.697 0-1.561.109-2.18.211-.225-.3-1.656-2.237-2.028-3.27-.107-.037-.19-.069-.365-.069-.345 0-.435.241-.524.57.789.958 1.548 2 1.807 2.74zm-7.843-2.74c-.09-.33-.177-.57-.522-.57-.177 0-.26.03-.365.067-.374 1.034-1.804 2.972-2.03 3.271-.616-.102-1.483-.21-2.18-.21-.164 0-.39-.014-.39.379 0 .226.1.626.225.759.307-.365.84-.473 1.495-.473.256 0 .564.09.68.117-.835.846-1.623 1.548-1.623 2.02 0 .26.272.607.5.725 0-.692.718-1.649 1.418-2.186 0 .095.034.46.034.854 0 1.306.13 1.563.632 1.563a.8.8 0 0 0 .307-.068c-.27-.311-.385-.722-.385-1.498 0-.223.008-.434.008-.615 0-.344-.04-.587-.065-.778.19-.026.629-.087.948-.087.685 0 1.11.065 1.42.373.221-.167.467-.486.467-.706 0-.314-.212-.336-.435-.336-.347 0-.63.139-1.944.139.258-.74 1.016-1.783 1.805-2.74zM7.464 50.43c0-1.143.743-2.006 1.165-2.522l-.283-.065c-.4.347-1.527 1.574-1.527 3.124 0 2.713 2.732 5.233 5.838 5.254a8.555 8.555 0 0 1-.051-.944c0-.208.008-.413.026-.607-2.745 0-5.168-1.971-5.168-4.24zm8.346-2.09c.141-.327.33-.713.33-1.138 0-1.178-.975-1.738-2.281-1.738-.671 0-1.01.217-1.01.435s.222.695.308.843c.24-.107.677-.235.929-.235.897 0 1.567 1.006 1.724 1.833zm.642-1.506c.763.15 1.283-.826.558-1 .1.32-.388.548-.388.548s-.186-.43.056-.676c-.445-.218-.558.046-.566.32.174.233.288.507.34.808zm2.47 6.684c.123.008.24.015.363.015 2.148 0 4.281-1.39 4.281-3.171 0-.95-.427-1.615-.956-2.352a5.026 5.026 0 0 1-.814.082c-.974 0-1.502-.522-1.54-1.035 0-.462.376-.81.958-.81.905 0 2.552.846 4.214.846-.164.123-.436.254-.764.376a6.043 6.043 0 0 1 1.872 3.307l2.546 4.074c.427.68 1.33 2.016 2.693 3.061-1.647 0-2.74.038-4.131-2.163l-1.303-2.087c-.097.27-.218.532-.357.79l2.595 4.154c.432.686 1.325 2.014 2.694 3.063-1.647 0-2.738.04-4.131-2.164l-2.233-3.575a9.09 9.09 0 0 1-.53.518l3.153 5.044c.433.69 1.324 2.01 2.694 3.061-1.647 0-2.739.038-4.132-2.164l-3.07-4.916c-.205.128-.411.25-.624.369l3.749 6c.432.688 1.322 2.01 2.692 3.06-1.645 0-2.739.04-4.128-2.164l-3.861-6.18c-.229.09-.461.172-.697.248l4.364 6.985c.424.676 1.337 2.018 2.69 3.06-1.644 0-2.737.038-4.127-2.164l-4.65-7.444-.143.026c-.127.402-.214.778-.214 1.154 0 2.337 1.535 4.402 3.377 5.997-.118.05-.324.07-.514.07a4.79 4.79 0 0 1-.799-.052c.429.971 1.346 2.223 1.808 2.872a13.56 13.56 0 0 1 2.055-.195c.601 0 .668.353.668.667 0 .545-.256.983-.551 1.226-.112-.282-.336-.655-1.447-.655l-.112.004c.326.364 1.341 1.184 1.341 1.848 0 .437-.48 1.092-1.114 1.092.04-.14.032-.27.032-.367 0-.536-.473-1.163-.874-1.6.01.13.005.116.005.268 0 1.267-.113 1.85-.918 1.85-.395 0-.668-.217-.76-.281.52-.483.549-.861.549-1.572l-.004-.615a3.63 3.63 0 0 1 .025-.532c-.288-.04-.402-.039-.624-.039 0 0-1.144-.09-1.42.503-.308-.283-.758-.683-.758-1.13 0-.291.139-.623.725-.623.223 0 .925.138 1.511.138-.156-.35-.86-1.376-1.465-2.123-.092.288-.237.604-.556.857-.044-.48-.324-1.992-1.072-2.875-.087.596-.206 1.21-.206 2.503 0 3.147.757 5.472 2.365 5.917-.21.366-.65.693-1.11.693-.588 0-.908-.665-1.236-1.294-.169.465-.638 1.597-1.11 1.597-.47 0-.94-1.132-1.109-1.597-.328.629-.648 1.294-1.237 1.294-.458 0-.9-.327-1.108-.693 1.606-.445 2.364-2.77 2.364-5.917 0-1.292-.118-1.907-.207-2.503-.747.883-1.028 2.396-1.072 2.875-.318-.253-.462-.569-.555-.857-.607.747-1.307 1.772-1.467 2.123.59 0 1.289-.138 1.512-.138.588 0 .727.332.727.623 0 .447-.452.847-.76 1.13-.276-.593-1.419-.503-1.419-.503-.221 0-.336-.001-.624.04.023.156.028.37.024.531l-.002.615c0 .71.027 1.089.55 1.572-.095.064-.367.28-.761.28-.806 0-.92-.582-.92-1.849 0-.152-.004-.137.007-.268-.403.437-.875 1.064-.875 1.6 0 .097-.007.227.031.367-.632 0-1.113-.655-1.113-1.092 0-.664 1.017-1.484 1.34-1.848l-.111-.004c-1.11 0-1.336.373-1.446.655a1.59 1.59 0 0 1-.553-1.226c0-.314.068-.667.67-.667.574 0 1.451.087 2.054.195.461-.65 1.378-1.901 1.807-2.872-.173.03-.418.051-.797.051-.19 0-.398-.019-.513-.07 1.84-1.594 3.374-3.66 3.374-5.996 0-.376-.086-.752-.214-1.154l-.14-.026-4.652 7.444c-1.39 2.202-2.483 2.164-4.128 2.164 1.354-1.042 2.266-2.384 2.69-3.06l4.365-6.985a12.445 12.445 0 0 1-.697-.247l-3.86 6.18c-1.391 2.203-2.485 2.164-4.129 2.164 1.37-1.05 2.259-2.373 2.691-3.061l3.75-6c-.214-.119-.42-.241-.623-.37l-3.072 4.917c-1.392 2.202-2.483 2.164-4.131 2.164 1.37-1.052 2.261-2.371 2.694-3.061l3.151-5.044a9.063 9.063 0 0 1-.528-.518l-2.233 3.575c-1.393 2.203-2.485 2.164-4.13 2.164 1.367-1.05 2.261-2.377 2.694-3.063l2.593-4.154a6.196 6.196 0 0 1-.355-.79l-1.305 2.087C2.736 57.949 1.645 57.911 0 57.911c1.362-1.045 2.264-2.38 2.693-3.061l2.544-4.074a6.041 6.041 0 0 1 1.87-3.307c-.325-.122-.598-.253-.761-.376 1.661 0 3.307-.844 4.212-.844.585 0 .958.346.958.808-.037.513-.566 1.035-1.54 1.035-.22 0-.504-.028-.814-.082-.528.737-.955 1.402-.955 2.352 0 1.782 2.132 3.171 4.283 3.171.121 0 .238-.007.36-.015.425-1.442 1.333-2.39 2.056-3.316-.868-.317-1.836-1.141-1.836-1.514.11-.064 1.774.459 1.947.506.035.008.07.011.11 0 .203-.061.373-.358.373-.389-.179-.029-1.222-.165-1.937-.423-.541-.199-.816-.558-.816-.695.173-.028.834.32 1.804.32.358 0 .427-.016.784-.06-.25-.595-.721-1.098-1.25-1.098-.211 0-.677.133-1.066.326-.27-.419-.509-.974-.509-1.276 0-.357.353-.776 1.349-.776.279 0 .539.025.78.07.195.036.359.08.534.15a.311.311 0 0 1-.022-.127c0-.139.125-.283.593-.283.82 0 1.66.268 2.69.268.267 0 .448-.008.603-.074-.067.206-.356.508-.622.753.164.224.59.764.59 1.637 0 1.401-.924 2.557-.924 3.975 0 .842.649 1.584.842 2.026zm38.811-39.402c0-.808-.332-1.247-1.22-1.247-.274 0-1.265.047-1.265 1.487v2.324c0 1.504.437 1.884 1.266 1.884.63 0 1.047-.172 1.23-.305v-2.056h-1.268v-.763h2.144v3.344c-.562.305-1.22.513-2.106.513-1.456 0-2.162-.752-2.162-2.657v-2.256c0-1.373.706-2.249 2.162-2.249 1.487 0 2.192.544 2.134 1.981h-.915zm2.524 5.038v-6.876h3.542v.762h-2.666v2.21h2.477v.761h-2.477v2.381h2.724v.762h-3.6zm4.695 0v-6.876h3.41v.762h-2.533v2.21h2.4v.761h-2.4v3.143h-.877zm4.267-2.514v-2.256c0-1.373.704-2.249 2.163-2.249 1.456 0 2.16.876 2.16 2.25v2.255c0 1.905-.704 2.657-2.16 2.657-1.459 0-2.163-.752-2.163-2.657zm1.78-5.17h-.893v-.992H71v.992zm1.648 5.21v-2.324c0-1.44-.99-1.487-1.265-1.487-.278 0-1.268.047-1.268 1.487v2.324c0 1.504.438 1.884 1.268 1.884.827 0 1.265-.38 1.265-1.884zm.029-5.21h-.894v-.992h.894v.992zm3.247 4.522v3.162h-.876v-6.876h2.373c1.22 0 1.646.859 1.646 1.716 0 .808-.447 1.427-1.257 1.57v.019c.79.124 1.076.392 1.124 1.771.01.296.105 1.373.238 1.8h-.914c-.248-.476-.19-1.37-.267-2.285-.067-.837-.743-.877-1.038-.877h-1.029zm0-.76h1.315c.628 0 .933-.544.933-1.144 0-.494-.248-1.048-.924-1.048h-1.324v2.192zm4.457-2.954h2.116c.876 0 1.504.316 1.847 1.048.277.582.306 1.952.306 2.171 0 1.468-.135 2.316-.42 2.773-.372.59-1.067.884-2.267.884H80.38v-6.876zm.877 6.114h.828c1.22 0 1.667-.457 1.667-2.055v-1.39c0-1.393-.429-1.907-1.341-1.907h-1.154v5.352zm4.923.762v-6.876h3.545v.762h-2.668v2.21h2.476v.761h-2.476v2.381h2.724v.762h-3.6zm5.62-3.162v3.162h-.876v-6.876h2.372c1.218 0 1.647.859 1.647 1.716 0 .808-.448 1.427-1.257 1.57v.019c.79.124 1.076.392 1.123 1.771.01.296.105 1.373.238 1.8h-.914c-.247-.476-.19-1.37-.267-2.285-.066-.837-.742-.877-1.038-.877H91.8zm0-.76h1.314c.629 0 .933-.544.933-1.144 0-.494-.247-1.048-.923-1.048H91.8v2.192zm8.295-2.954v.762h-1.81v6.114h-.876V13.04H95.6v-.762h4.496zm5.41 6.876h-1.048l-1.99-6.876h.952l1.571 6.05h.02l1.609-6.05h.895l-2.01 6.876zm2.875-2.514v-2.256c0-1.373.706-2.249 2.163-2.249 1.457 0 2.162.876 2.162 2.25v2.255c0 1.905-.705 2.657-2.162 2.657-1.457 0-2.162-.752-2.162-2.657zm3.43.04v-2.324c0-1.44-.991-1.487-1.267-1.487-.276 0-1.267.047-1.267 1.487v2.324c0 1.504.438 1.884 1.267 1.884.828 0 1.267-.38 1.267-1.884zm3.247 2.474h-.819v-6.876h1.42l1.733 5.772h.019l1.752-5.772h1.448v6.876h-.877V13.04h-.019l-1.923 6.114h-.829l-1.886-6.114h-.019v6.114z"/></g></svg>