<svg xmlns="http://www.w3.org/2000/svg" xmlns:xlink="http://www.w3.org/1999/xlink" width="127" height="78" viewBox="0 0 127 78">
  <defs>
    <polygon id="micromata_pfeile_gross_rgb-a" points=".246 .115 49.876 .115 49.876 13.953 .246 13.953"/>
    <polygon id="micromata_pfeile_gross_rgb-c" points=".021 .249 126.354 .249 126.354 76.978 .021 76.978"/>
  </defs>
  <g fill="none" fill-rule="evenodd" transform="translate(.426 .484)">
    <polyline fill="#000105" points=".742 63.578 3.919 63.578 7.442 69.244 10.964 63.578 14.141 63.578 14.141 76.978 11.212 76.978 11.212 68.23 7.442 73.953 7.365 73.953 3.632 68.287 3.632 76.978 .742 76.978 .742 63.578"/>
    <g transform="translate(17.817 63.233)">
      <mask id="micromata_pfeile_gross_rgb-b" fill="#fff">
        <use xlink:href="#micromata_pfeile_gross_rgb-a"/>
      </mask>
      <polygon fill="#000105" points=".246 13.745 3.193 13.745 3.193 .345 .246 .345" mask="url(#micromata_pfeile_gross_rgb-b)"/>
      <path fill="#000105" d="M6.52347445 7.08313846L6.52347445 7.0447096C6.52347445 3.23536105 9.39480935.114937241 13.5101914.114937241 16.0370639.114937241 17.5497638.957577436 18.7938109 2.18275951L16.9177836 4.34560589C15.8843965 3.40794159 14.8310963 2.83360474 13.4913263 2.83360474 11.2324078 2.83360474 9.6054694 4.70928269 9.6054694 7.00663009L9.6054694 7.0447096C9.6054694 9.342057 11.1939789 11.2558145 13.4913263 11.2558145 15.0225419 11.2558145 15.9602062 10.6433981 17.0135064 9.68617001L18.8895337 11.5810624C17.5109856 13.0553334 15.9801193 13.9741326 13.3956035 13.9741326 9.452802 13.9741326 6.52347445 10.9302172 6.52347445 7.08313846M27.7498325 6.85326398C29.1856746 6.85326398 30.0087511 6.08783087 30.0087511 4.9583716L30.0087511 4.91959338C30.0087511 3.65668115 29.1283807 3.00548657 27.6928879 3.00548657L24.7635604 3.00548657 24.7635604 6.85326398 27.7498325 6.85326398zM21.8164158.344811722L27.9412781.344811722C29.6450743.344811722 30.9652804.823425763 31.8466988 1.70414547 32.5932669 2.45036415 32.9946738 3.50331504 32.9946738 4.76692598L32.9946738 4.80500549C32.9946738 6.96820122 31.8271351 8.32718562 30.1233389 8.95881641L33.3967795 13.7446075 29.9518065 13.7446075 27.0797729 9.45664488 24.7635604 9.45664488 24.7635604 13.7446075 21.8164158 13.7446075 21.8164158.344811722zM46.7937804 7.08313846L46.7937804 7.0447096C46.7937804 4.74771155 45.1095481 2.83360474 42.735343 2.83360474 40.3621859 2.83360474 38.7156837 4.70928269 38.7156837 7.00663009L38.7156837 7.0447096C38.7156837 9.342057 40.4006148 11.2558145 42.7737718 11.2558145 45.1472783 11.2558145 46.7937804 9.38013651 46.7937804 7.08313846zM35.6343875 7.08313846L35.6343875 7.0447096C35.6343875 3.23536105 38.6395247.114937241 42.7737718.114937241 46.909067.114937241 49.8757754 3.19728154 49.8757754 7.00663009L49.8757754 7.0447096C49.8757754 10.8540581 46.8706382 13.9741326 42.735343 13.9741326 38.6010958 13.9741326 35.6343875 10.892487 35.6343875 7.08313846z" mask="url(#micromata_pfeile_gross_rgb-b)"/>
    </g>
    <polyline fill="#000105" points="70.887 63.578 74.065 63.578 77.587 69.244 81.109 63.578 84.287 63.578 84.287 76.978 81.358 76.978 81.358 68.23 77.587 73.953 77.51 73.953 73.778 68.287 73.778 76.978 70.887 76.978 70.887 63.578"/>
    <path fill="#000105" d="M95.768923,71.3683407 L93.9882691,67.0234335 L92.2086633,71.3683407 L95.768923,71.3683407 Z M92.6677136,63.4820389 L95.3860317,63.4820389 L101.128702,76.9775575 L98.0467066,76.9775575 L96.8218738,73.9720709 L91.1553631,73.9720709 L89.9305304,76.9775575 L86.9253931,76.9775575 L92.6677136,63.4820389 Z"/>
    <polyline fill="#000105" points="105.166 66.296 101.089 66.296 101.089 63.578 112.191 63.578 112.191 66.296 108.114 66.296 108.114 76.978 105.166 76.978 105.166 66.296"/>
    <mask id="micromata_pfeile_gross_rgb-d" fill="#fff">
      <use xlink:href="#micromata_pfeile_gross_rgb-c"/>
    </mask>
    <path fill="#000105" d="M120.993979,71.3683407 L119.214373,67.0234335 L117.433719,71.3683407 L120.993979,71.3683407 Z M117.893119,63.4820389 L120.611437,63.4820389 L126.353758,76.9775575 L123.272811,76.9775575 L122.04693,73.9720709 L116.381467,73.9720709 L115.155936,76.9775575 L112.150799,76.9775575 L117.893119,63.4820389 Z" mask="url(#micromata_pfeile_gross_rgb-d)"/>
    <polyline fill="#219594" points="33.832 26.444 26.197 18.808 26.197 18.809 7.637 .25 0 7.885 18.56 26.445 0 45.005 7.637 52.641 26.196 34.081 26.197 34.082 33.832 26.444" mask="url(#micromata_pfeile_gross_rgb-d)"/>
    <polyline fill="#1C6D71" points="18.557 26.443 26.197 18.808 33.833 26.443 26.194 34.078 18.557 26.443" mask="url(#micromata_pfeile_gross_rgb-d)"/>
    <polyline fill="#F8C437" points="68.727 52.641 61.092 45.005 79.651 26.445 61.092 7.884 68.727 .249 94.924 26.444 68.727 52.641" mask="url(#micromata_pfeile_gross_rgb-d)"/>
    <polyline fill="#6DB744" points="125.47 26.444 117.835 18.808 117.834 18.809 99.275 .25 91.638 7.885 110.198 26.445 91.638 45.005 99.275 52.641 117.834 34.081 117.835 34.082 125.47 26.444"/>
    <g transform="translate(30.394)">
      <polyline fill="#368E43" points="79.802 26.442 87.441 18.808 95.078 26.443 87.439 34.077 79.802 26.442"/>
      <polyline fill="#D32058" points="33.984 26.444 7.787 .249 .152 7.884 18.711 26.445 .152 45.005 7.787 52.641 33.984 26.444"/>
    </g>
    <polyline fill="#91203C" points="49.106 26.445 56.741 18.809 64.377 26.445 56.742 34.08 49.106 26.445"/>
    <polyline fill="#EC943A" points="79.651 26.445 87.286 18.809 94.922 26.445 87.287 34.08 79.651 26.445"/>
  </g>
</svg>
